<svg width="513" height="342" viewBox="0 0 513 342" fill="none" xmlns="http://www.w3.org/2000/svg">
<g clip-path="url(#clip0_135_1996)">
<path d="M0 0H513V342H0V0Z" fill="#0052B4"/>
<path d="M440.101 181.1C440.001 220.3 433.701 262.5 382.701 282.6C331.601 262.5 325.401 220.3 325.301 181.1H440.101Z" fill="white"/>
<path d="M439.599 197.699C436.799 232.599 427.199 265.099 382.599 282.699C338.199 265.099 328.099 231.499 325.699 197.799" fill="#29DBFF"/>
<path d="M437.802 214.1C434.602 238.4 421.102 267.6 382.702 282.7C344.302 267.6 332.202 240.2 327.602 214.3" fill="white"/>
<path d="M434.2 230.3C428.5 248 414.9 269.7 382.9 283.1C350.9 270.5 337.7 249.3 331.5 230.1" fill="#29DBFF"/>
<path d="M426.699 246.899C420.199 258.199 408.999 272.299 382.699 282.799C355.199 271.299 345.299 257.499 338.699 246.699" fill="white"/>
<path d="M412.402 265.1C404.302 272.3 400.402 276.3 382.802 283C362.702 275.1 360.202 271.4 353.602 265.5" fill="#29DBFF"/>
<path d="M383.302 231.601C383.102 231.401 355.402 267.301 355.402 267.301C353.602 266.001 345.402 257.801 342.102 252.301L383.402 202.201L423.602 251.901C419.702 258.401 412.202 265.501 410.402 266.901L383.302 231.601ZM382.602 85.3008L356.102 130.301H409.102L382.602 85.3008Z" fill="#5CC85C"/>
<path d="M306.997 227.821C310.601 201.168 306.557 178.619 297.964 177.457C289.371 176.295 279.484 196.96 275.881 223.614C272.277 250.268 276.321 272.817 284.914 273.979C293.507 275.14 303.394 254.475 306.997 227.821Z" fill="#F7A226"/>
<path d="M309.799 167.355C312.209 161.36 311.172 155.297 307.483 153.814C303.793 152.331 298.849 155.989 296.438 161.984C294.028 167.98 295.065 174.042 298.755 175.525C302.444 177.009 307.389 173.351 309.799 167.355Z" fill="#DDC7AB"/>
<path d="M294.967 272.169C295.871 265.938 295.143 260.675 293.339 260.413C291.535 260.151 289.34 264.99 288.435 271.22C287.53 277.451 288.259 282.714 290.063 282.976C291.866 283.238 294.062 278.399 294.967 272.169Z" fill="#DDC7AB"/>
<path d="M300.2 280.394C302.02 280.297 303.231 275.299 302.906 269.233C302.581 263.166 300.842 258.327 299.022 258.425C297.202 258.522 295.99 263.52 296.315 269.586C296.641 275.653 298.38 280.492 300.2 280.394Z" fill="#DDC7AB"/>
<path d="M319.544 213.858C321.651 213.027 321.109 206.647 318.333 199.609C315.558 192.57 311.6 187.537 309.494 188.367C307.387 189.198 307.929 195.577 310.705 202.616C313.48 209.655 317.438 214.688 319.544 213.858Z" fill="#DDC7AB"/>
<path d="M319.015 181.916C326.054 179.141 331.086 175.183 330.256 173.077C329.425 170.97 323.046 171.512 316.007 174.287C308.968 177.063 303.935 181.02 304.766 183.127C305.596 185.233 311.976 184.691 319.015 181.916Z" fill="#DDC7AB"/>
<path d="M480.132 274.184C488.725 273.022 492.769 250.473 489.165 223.819C485.562 197.166 475.675 176.5 467.082 177.662C458.489 178.824 454.445 201.373 458.049 228.027C461.652 254.68 471.539 275.346 480.132 274.184Z" fill="#F7A226"/>
<path d="M466.381 175.774C470.071 174.29 471.108 168.228 468.698 162.232C466.287 156.237 461.343 152.579 457.653 154.062C453.964 155.546 452.927 161.608 455.337 167.604C457.747 173.599 462.692 177.257 466.381 175.774Z" fill="#DDC7AB"/>
<path d="M475.037 283.162C476.841 282.9 477.569 277.637 476.663 271.406C475.758 265.176 473.561 260.337 471.758 260.6C469.954 260.862 469.226 266.125 470.132 272.356C471.038 278.586 473.234 283.425 475.037 283.162Z" fill="#DDC7AB"/>
<path d="M468.777 269.757C469.102 263.691 467.891 258.694 466.071 258.596C464.251 258.499 462.512 263.337 462.186 269.404C461.861 275.471 463.073 280.468 464.893 280.565C466.713 280.663 468.452 275.824 468.777 269.757Z" fill="#DDC7AB"/>
<path d="M454.341 202.688C457.116 195.649 457.658 189.27 455.552 188.439C453.445 187.609 449.488 192.642 446.713 199.681C443.937 206.72 443.395 213.099 445.502 213.93C447.608 214.76 451.566 209.727 454.341 202.688Z" fill="#DDC7AB"/>
<path d="M460.365 183.285C461.196 181.178 456.163 177.221 449.124 174.445C442.085 171.67 435.706 171.128 434.875 173.235C434.044 175.341 439.077 179.299 446.116 182.074C453.155 184.849 459.535 185.391 460.365 183.285Z" fill="#DDC7AB"/>
<path d="M373.302 130.301L356.102 155.001L373.902 181.101H396.002L400.702 155.701L395.302 130.301H373.302Z" fill="#B0C6CC"/>
<path d="M256 0V117.4H209.9L256 148.1V170.7H233.4L160 121.8V170.7H96V121.8L22.6 170.7H0V148.1L46.1 117.4H0V53.4H46.1L0 22.7V0H22.6L96 48.9V0H160V48.9L233.4 0H256Z" fill="white"/>
<path d="M144 0H112V69.4H0V101.4H112V170.7H144V101.4H256V69.4H144V0Z" fill="#D80027"/>
<path d="M255.998 22.6992V53.3992H209.898L255.998 22.6992Z" fill="#2E52B2"/>
<path d="M0 170.7V159.7L62.5 117.4H85.1L7.3 170.7H0Z" fill="#D80027"/>
<path d="M7.3 0.0996094L85.1 53.2996H62.5L0 11.0996V0.0996094H7.3ZM256 0.0996094V11.0996L193.5 53.3996H170.9L248.7 0.0996094H256ZM248.7 170.7L170.9 117.4H193.5L256 159.7V170.7H248.7Z" fill="#D80027"/>
</g>
<defs>
<clipPath id="clip0_135_1996">
<rect width="513" height="342" fill="white"/>
</clipPath>
</defs>
</svg>
