<svg width="26" height="25" viewBox="0 0 26 25" fill="none" xmlns="http://www.w3.org/2000/svg">
<mask id="path-1-inside-1_941_2228" fill="white">
<path d="M15.1177 17.7184C14.8061 18.7426 14.5175 19.6849 14.2311 20.6272C13.9127 21.6772 13.6148 22.7317 13.2689 23.7731C13.1956 23.9909 12.9459 24.1569 12.7787 24.3467C12.5977 24.1505 12.3228 23.9801 12.2495 23.7516C11.6836 21.9877 11.159 20.2132 10.6206 18.4429C10.5542 18.2229 10.4763 18.0073 10.3847 17.727C10.1487 17.8413 9.96544 17.9232 9.78903 18.0138C8.04337 18.9237 6.30228 19.8444 4.54515 20.7371C4.32981 20.8471 4.02741 20.804 3.76625 20.8298C3.77999 20.5689 3.70439 20.2627 3.82352 20.0557C4.74905 18.4321 5.71122 16.8278 6.65966 15.215C6.76962 15.0295 6.86813 14.8398 7.01017 14.5875C6.77879 14.5099 6.59322 14.4387 6.40308 14.387C4.48559 13.8673 2.56352 13.3606 0.652908 12.8194C0.40549 12.7504 0.217636 12.5003 0 12.3342C0.210763 12.166 0.394036 11.9116 0.639162 11.8426C2.53145 11.3079 4.43748 10.8098 6.33664 10.2987C6.53366 10.2448 6.72839 10.1845 6.99871 10.1047C6.89104 9.88689 6.81773 9.71224 6.72151 9.55052C5.76392 7.92255 4.80174 6.29674 3.84414 4.66878C3.76167 4.52862 3.66774 4.38415 3.63567 4.23106C3.55777 3.87312 3.83956 3.63593 4.21068 3.74159C4.37105 3.78687 4.51995 3.87743 4.66886 3.95506C6.3962 4.85853 8.12355 5.76631 9.85089 6.66977C9.99751 6.7474 10.151 6.81424 10.3778 6.92205C10.5634 6.34849 10.7466 5.81159 10.9093 5.27037C11.3377 3.86018 11.7432 2.44353 12.1991 1.04197C12.2861 0.774596 12.5244 0.405878 12.7558 0.358441C13.2002 0.267878 13.2346 0.72069 13.3239 1.01825C13.8646 2.78853 14.396 4.56096 14.9321 6.3334C14.9825 6.50374 15.0467 6.66977 15.1314 6.91558C15.3605 6.80777 15.5575 6.72368 15.7477 6.62449C17.475 5.72102 19.1955 4.80246 20.9343 3.9184C21.1634 3.80197 21.5597 3.73081 21.743 3.83862C22.1049 4.05425 21.8484 4.37553 21.6926 4.63859C20.735 6.26655 19.7728 7.89021 18.8152 9.51817C18.7167 9.6842 18.6319 9.85886 18.5105 10.0874C18.7671 10.1672 18.9549 10.2362 19.1497 10.288C21.0488 10.8011 22.9526 11.2992 24.8471 11.8318C25.0991 11.903 25.4451 12.1121 25.4886 12.3084C25.5757 12.7008 25.145 12.7482 24.8403 12.8302C22.9411 13.3477 21.042 13.8587 19.1428 14.3762C18.9504 14.4279 18.7625 14.4969 18.5082 14.5789C18.6342 14.8074 18.7213 14.9799 18.8198 15.146C19.7774 16.7739 20.7487 18.3933 21.6857 20.032C21.8071 20.2455 21.7521 20.5474 21.7773 20.8083C21.5001 20.7867 21.1771 20.8428 20.9526 20.7285C19.1955 19.8401 17.4544 18.9172 15.7087 18.0073C15.5461 17.9232 15.3766 17.8456 15.1154 17.7205L15.1177 17.7184ZM12.8016 2.57506L12.6802 2.58584C12.6275 2.75619 12.5702 2.92437 12.5198 3.09472C11.8783 5.20999 11.2254 7.32096 10.6069 9.44271C10.4694 9.91277 10.2335 10.1586 9.72718 10.2901C7.50959 10.8637 5.30344 11.4717 3.09501 12.069C2.87279 12.1294 2.65516 12.2027 2.43523 12.2695C2.43752 12.3191 2.4421 12.3666 2.4444 12.4162C2.72847 12.4959 3.01025 12.5757 3.29432 12.6534C5.43174 13.2269 7.56915 13.8113 9.71344 14.3633C10.2083 14.4905 10.4694 14.7104 10.6069 15.1934C11.1452 17.0931 11.734 18.9819 12.309 20.873C12.4304 21.274 12.5633 21.6729 12.7328 22.1991C12.8359 21.9597 12.8932 21.8541 12.9299 21.7419C13.6057 19.5426 14.2907 17.3475 14.939 15.1417C15.0673 14.7039 15.301 14.4948 15.7568 14.3762C18.0111 13.7919 20.2562 13.1795 22.5036 12.5757C22.7074 12.5218 22.9045 12.4485 23.1061 12.3838C22.9113 12.2113 22.7372 12.1509 22.5585 12.1014C20.3661 11.5084 18.1806 10.8982 15.9791 10.3419C15.3513 10.1845 15.0398 9.91061 14.8703 9.30686C14.2792 7.2153 13.6194 5.14315 12.9848 3.06453C12.9344 2.8985 12.8634 2.73894 12.8039 2.57506H12.8016ZM20.121 5.51402C20.0821 5.47521 20.0408 5.43856 20.0019 5.39974C19.8232 5.48815 19.6445 5.5744 19.4681 5.66712C18.4899 6.17815 17.5163 6.6978 16.5357 7.20452C15.74 7.61564 15.4812 8.22874 15.7591 9.0438C15.876 9.38664 17.2161 9.94727 17.5415 9.7683C17.6606 9.70361 17.7339 9.55483 17.8072 9.43408C18.2997 8.61039 18.7877 7.78455 19.2757 6.95655C19.5597 6.47787 19.8392 5.99487 20.1187 5.51402H20.121ZM20.0385 19.2752C20.0798 19.1717 20.0958 19.1523 20.0912 19.1437C19.2986 17.7788 18.5059 16.416 17.7064 15.0554C17.656 14.9713 17.5277 14.8484 17.4659 14.8614C16.9504 14.9799 16.2883 14.9864 15.9745 15.2991C15.6263 15.6462 15.5965 16.2758 15.4453 16.789C15.4338 16.8322 15.553 16.9292 15.6308 16.9702C17.0879 17.7356 18.5472 18.4968 20.0385 19.2773V19.2752ZM5.45464 5.36093C5.45464 5.49246 5.43632 5.55068 5.45693 5.58949C6.24271 6.93499 7.02849 8.28264 7.8326 9.61736C7.89217 9.71439 8.11438 9.79202 8.24497 9.77477C9.14758 9.64324 9.90129 9.37155 9.99293 8.3193C10.025 7.9549 10.0571 7.73711 9.66304 7.55168C8.90016 7.19158 8.16249 6.78405 7.41337 6.39377C6.77421 6.05956 6.13733 5.72318 5.45235 5.36093H5.45464ZM5.37217 19.1695C5.41112 19.2019 5.44777 19.2342 5.48672 19.2666C6.64362 18.665 7.80969 18.0785 8.95744 17.4618C10.3984 16.6877 10.167 17.1276 9.75238 15.6268C9.65616 15.2797 8.31827 14.7169 7.98151 14.8743C7.91966 14.9023 7.86697 14.9692 7.8326 15.0274C7.01246 16.4074 6.19232 17.7874 5.37446 19.1695H5.37217Z"/>
<path d="M12.8016 2.57506C12.8634 2.73894 12.9322 2.89862 12.9826 3.06465C13.6171 5.14327 14.2769 7.21758 14.868 9.30698C15.0375 9.90858 15.3491 10.1824 15.9768 10.342C18.1783 10.8983 20.3639 11.5107 22.5562 12.1015C22.7349 12.1489 22.909 12.2093 23.1038 12.3839C22.9022 12.4486 22.7052 12.5219 22.5013 12.5759C20.2539 13.1796 18.0088 13.792 15.7546 14.3763C15.2964 14.4949 15.065 14.7019 14.9367 15.1418C14.2884 17.3476 13.6011 19.5427 12.9276 21.7421C12.8932 21.8542 12.8336 21.962 12.7306 22.1992C12.5633 21.6731 12.4304 21.2741 12.3067 20.8731C11.734 18.9821 11.1453 17.0932 10.6046 15.1935C10.4671 14.7105 10.206 14.4906 9.71114 14.3634C7.56686 13.8114 5.43174 13.227 3.29203 12.6535C3.00796 12.578 2.72389 12.4961 2.4421 12.4163C2.43981 12.3667 2.43523 12.3193 2.43294 12.2697C2.65287 12.2028 2.8705 12.1295 3.09272 12.0691C5.30344 11.4719 7.50959 10.8638 9.72489 10.2902C10.2312 10.1587 10.4694 9.91073 10.6046 9.44283C11.2209 7.32108 11.8761 5.21012 12.5175 3.09484C12.5702 2.92449 12.6252 2.75631 12.6779 2.58596L12.7993 2.57518L12.8016 2.57506Z"/>
<path d="M20.121 5.51402C19.8392 5.99487 19.5597 6.47583 19.278 6.95667C18.79 7.78252 18.302 8.61052 17.8095 9.4342C17.7362 9.55495 17.6606 9.70373 17.5438 9.76842C17.2207 9.94739 15.8783 9.38461 15.7614 9.04392C15.4819 8.22599 15.7408 7.61289 16.538 7.20464C17.5185 6.69793 18.4922 6.18043 19.4704 5.66724C19.6468 5.57452 19.8255 5.48827 20.0042 5.39987C20.0431 5.43868 20.0844 5.47533 20.1233 5.51415L20.121 5.51402Z"/>
<path d="M20.0385 19.2752C18.5472 18.4968 17.0879 17.7358 15.6308 16.9681C15.553 16.9272 15.4338 16.8301 15.4453 16.787C15.5965 16.276 15.6263 15.6442 15.9745 15.297C16.286 14.9844 16.9504 14.9779 17.4659 14.8593C17.5277 14.8442 17.6583 14.9671 17.7064 15.0534C18.5059 16.414 19.2986 17.7767 20.0912 19.1416C20.0958 19.1502 20.0798 19.1718 20.0385 19.2732L20.0385 19.2752Z"/>
<path d="M5.45464 5.36093C6.13962 5.72102 6.7765 6.05968 7.41566 6.39389C8.16249 6.78417 8.90016 7.19171 9.66533 7.5518C10.0594 7.73724 10.0273 7.95502 9.99522 8.31942C9.90358 9.37383 9.15216 9.64336 8.24726 9.77489C8.11897 9.7943 7.89446 9.71667 7.83489 9.61748C7.0285 8.28061 6.24501 6.93511 5.45923 5.58961C5.43632 5.5508 5.45693 5.49258 5.45693 5.36105L5.45464 5.36093Z"/>
<path d="M5.37217 19.1695C6.19002 17.7895 7.01017 16.4075 7.83031 15.0275C7.86468 14.9671 7.91737 14.9024 7.97922 14.8744C8.31598 14.717 9.65387 15.2798 9.75009 15.6269C10.1647 17.1255 10.3961 16.6857 8.95515 17.4619C7.8074 18.0786 6.64133 18.6672 5.48443 19.2667C5.44548 19.2343 5.40883 19.202 5.36988 19.1697L5.37217 19.1695Z"/>
</mask>
<path d="M15.1177 17.7184L15.3329 17.7839L15.5792 16.9742L14.9634 17.5546L15.1177 17.7184ZM14.2311 20.6272L14.0158 20.5617L14.0158 20.5619L14.2311 20.6272ZM13.2689 23.7731L13.4822 23.8449L13.4824 23.844L13.2689 23.7731ZM12.7787 24.3467L12.6133 24.4992L12.7825 24.6827L12.9475 24.4954L12.7787 24.3467ZM12.2495 23.7516L12.4637 23.6828L12.4637 23.6828L12.2495 23.7516ZM10.6206 18.4429L10.4052 18.5079L10.4054 18.5083L10.6206 18.4429ZM10.3847 17.727L10.5985 17.6571L10.5185 17.4122L10.2866 17.5245L10.3847 17.727ZM9.78903 18.0138L9.68627 17.8136L9.68503 17.8143L9.78903 18.0138ZM4.54515 20.7371L4.44324 20.5365L4.44283 20.5367L4.54515 20.7371ZM3.76625 20.8298L3.54156 20.818L3.52778 21.0796L3.78843 21.0537L3.76625 20.8298ZM3.82352 20.0557L4.01853 20.168L4.01899 20.1672L3.82352 20.0557ZM6.65966 15.215L6.46613 15.1002L6.46571 15.1009L6.65966 15.215ZM7.01017 14.5875L7.20623 14.6979L7.33974 14.4608L7.08173 14.3742L7.01017 14.5875ZM6.40308 14.387L6.46217 14.1699L6.46193 14.1698L6.40308 14.387ZM0.652908 12.8194L0.714231 12.6029L0.713349 12.6027L0.652908 12.8194ZM0 12.3342L-0.140341 12.1584L-0.365729 12.3382L-0.136471 12.5131L0 12.3342ZM0.639162 11.8426L0.700128 12.0592L0.70035 12.0591L0.639162 11.8426ZM6.33664 10.2987L6.39511 10.516L6.39602 10.5158L6.33664 10.2987ZM6.99871 10.1047L7.0624 10.3205L7.31897 10.2448L7.20041 10.005L6.99871 10.1047ZM6.72151 9.55052L6.52758 9.6646L6.52815 9.66556L6.72151 9.55052ZM3.84414 4.66878L4.03807 4.5547L4.03806 4.55467L3.84414 4.66878ZM3.63567 4.23106L3.85589 4.18492L3.85552 4.18322L3.63567 4.23106ZM4.21068 3.74159L4.14908 3.95799L4.14954 3.95812L4.21068 3.74159ZM4.66886 3.95506L4.77314 3.75568L4.77287 3.75554L4.66886 3.95506ZM9.85089 6.66977L9.95617 6.47092L9.95517 6.4704L9.85089 6.66977ZM10.3778 6.92205L10.2812 7.12526L10.5129 7.2354L10.5919 6.99131L10.3778 6.92205ZM10.9093 5.27037L10.694 5.20497L10.6938 5.20561L10.9093 5.27037ZM12.1991 1.04197L11.9851 0.972312L11.9851 0.972373L12.1991 1.04197ZM12.7558 0.358441L12.7108 0.137971L12.7106 0.138025L12.7558 0.358441ZM13.3239 1.01825L13.1084 1.08296L13.1087 1.08397L13.3239 1.01825ZM14.9321 6.3334L15.1479 6.26956L15.1475 6.26826L14.9321 6.3334ZM15.1314 6.91558L14.9187 6.98893L15.0004 7.2259L15.2272 7.11917L15.1314 6.91558ZM15.7477 6.62449L15.8517 6.82398L15.852 6.82387L15.7477 6.62449ZM20.9343 3.9184L20.8323 3.71782L20.8323 3.71784L20.9343 3.9184ZM21.743 3.83862L21.8581 3.64532L21.8571 3.64469L21.743 3.83862ZM21.6926 4.63859L21.499 4.52394L21.4986 4.52451L21.6926 4.63859ZM18.8152 9.51817L19.0087 9.63298L19.0091 9.63225L18.8152 9.51817ZM18.5105 10.0874L18.3118 9.98186L18.1844 10.2217L18.4437 10.3023L18.5105 10.0874ZM19.1497 10.288L19.2084 10.0707L19.2075 10.0705L19.1497 10.288ZM24.8471 11.8318L24.9083 11.6153L24.908 11.6152L24.8471 11.8318ZM24.8403 12.8302L24.7818 12.6129L24.7811 12.6131L24.8403 12.8302ZM19.1428 14.3762L19.2012 14.5935L19.202 14.5933L19.1428 14.3762ZM18.5082 14.5789L18.4392 14.3647L18.1794 14.4484L18.3112 14.6875L18.5082 14.5789ZM18.8198 15.146L19.0137 15.0319L19.0133 15.0312L18.8198 15.146ZM21.6857 20.032L21.8813 19.9208L21.881 19.9203L21.6857 20.032ZM21.7773 20.8083L21.7599 21.0326L22.0271 21.0534L22.0013 20.7866L21.7773 20.8083ZM20.9526 20.7285L21.0547 20.528L21.0541 20.5277L20.9526 20.7285ZM15.7087 18.0073L15.8127 17.8078L15.8121 17.8074L15.7087 18.0073ZM15.1154 17.7205L14.9611 17.5568L14.7224 17.7818L15.0182 17.9235L15.1154 17.7205ZM12.8016 2.57506V2.34975L12.7897 2.35038L12.8016 2.57506ZM12.6802 2.58584L12.6603 2.36172L12.5098 2.37508L12.4652 2.51935L12.6802 2.58584ZM12.5198 3.09472L12.7351 3.16001L12.7355 3.15855L12.5198 3.09472ZM10.6069 9.44271L10.8228 9.50585L10.8229 9.50568L10.6069 9.44271ZM9.72718 10.2901L9.78352 10.5079L9.78376 10.5079L9.72718 10.2901ZM3.09501 12.069L3.03627 11.8518L3.03602 11.8519L3.09501 12.069ZM2.43523 12.2695L2.3698 12.0543L2.2024 12.1051L2.21047 12.2799L2.43523 12.2695ZM2.4444 12.4162L2.21964 12.4266L2.22713 12.5889L2.38356 12.6328L2.4444 12.4162ZM3.29432 12.6534L3.23501 12.8704L3.23601 12.8707L3.29432 12.6534ZM9.71344 14.3633L9.65734 14.5812L9.65741 14.5812L9.71344 14.3633ZM10.6069 15.1934L10.8234 15.1321L10.8233 15.1318L10.6069 15.1934ZM12.309 20.873L12.5244 20.8078L12.5243 20.8075L12.309 20.873ZM12.7328 22.1991L12.5187 22.2681L12.7025 22.8384L12.9395 22.2881L12.7328 22.1991ZM12.9299 21.7419L13.1438 21.8119L13.1449 21.808L12.9299 21.7419ZM14.939 15.1417L15.1549 15.2051L15.1549 15.2049L14.939 15.1417ZM15.7568 14.3762L15.7004 14.1584L15.7002 14.1584L15.7568 14.3762ZM22.5036 12.5757L22.446 12.3582L22.4452 12.3584L22.5036 12.5757ZM23.1061 12.3838L23.1748 12.5981L23.551 12.4774L23.2553 12.2154L23.1061 12.3838ZM22.5585 12.1014L22.6187 11.8845L22.6173 11.8842L22.5585 12.1014ZM15.9791 10.3419L16.0342 10.1237L16.0338 10.1236L15.9791 10.3419ZM14.8703 9.30686L15.0869 9.24603L15.0868 9.24567L14.8703 9.30686ZM12.9848 3.06453L12.7695 3.12988L12.7697 3.13023L12.9848 3.06453ZM12.8039 2.57506L13.0153 2.4982L12.9615 2.35006H12.8039V2.57506ZM20.0019 5.39974L20.1607 5.24037L20.0466 5.12661L19.9021 5.19808L20.0019 5.39974ZM19.4681 5.66712L19.5723 5.86655L19.5728 5.86628L19.4681 5.66712ZM16.5357 7.20452L16.639 7.40442L16.639 7.40441L16.5357 7.20452ZM15.7591 9.0438L15.9721 8.97122L15.9721 8.97117L15.7591 9.0438ZM17.5415 9.7683L17.4341 9.57057L17.433 9.57116L17.5415 9.7683ZM17.8072 9.43408L17.9995 9.55085L18.0003 9.54955L17.8072 9.43408ZM19.2757 6.95655L19.0822 6.84172L19.0818 6.84232L19.2757 6.95655ZM20.1187 5.51402V5.28902H19.9893L19.9242 5.40096L20.1187 5.51402ZM20.0912 19.1437L20.2901 19.038L20.2858 19.0307L20.0912 19.1437ZM17.7064 15.0554L17.9004 14.9414L17.8994 14.9397L17.7064 15.0554ZM17.4659 14.8614L17.4198 14.6411L17.4154 14.6421L17.4659 14.8614ZM15.9745 15.2991L15.8157 15.1397L15.8156 15.1397L15.9745 15.2991ZM15.4453 16.789L15.2294 16.7254L15.2278 16.7313L15.4453 16.789ZM15.6308 16.9702L15.5261 17.1693L15.5262 17.1693L15.6308 16.9702ZM20.0385 19.2773L19.9342 19.4767L20.2635 19.6491V19.2773H20.0385ZM5.45464 5.36093L5.46655 5.13593H5.45464V5.36093ZM5.45693 5.58949L5.25807 5.69513L5.26264 5.70296L5.45693 5.58949ZM7.8326 9.61736L7.63987 9.73347L7.64085 9.73507L7.8326 9.61736ZM8.24497 9.77477L8.27444 9.99785L8.27741 9.99742L8.24497 9.77477ZM9.99293 8.3193L9.76879 8.29957L9.76877 8.29978L9.99293 8.3193ZM9.66304 7.55168L9.56699 7.75515L9.56723 7.75526L9.66304 7.55168ZM7.41337 6.39377L7.30911 6.59316L7.30941 6.59332L7.41337 6.39377ZM5.45235 5.36093V5.13593L5.34717 5.55983L5.45235 5.36093ZM5.48672 19.2666L5.34297 19.4397L5.45793 19.5351L5.59052 19.4662L5.48672 19.2666ZM8.95744 17.4618L8.85096 17.2636L8.85094 17.2636L8.95744 17.4618ZM9.75238 15.6268L9.96926 15.5669L9.96921 15.5667L9.75238 15.6268ZM7.98151 14.8743L8.07439 15.0792L8.07679 15.0781L7.98151 14.8743ZM7.8326 15.0274L8.02602 15.1423L8.02637 15.1418L7.8326 15.0274ZM5.37446 19.1695V19.3945H5.50276L5.5681 19.2841L5.37446 19.1695ZM12.9826 3.06465L12.7673 3.13001L12.7674 3.13035L12.9826 3.06465ZM14.868 9.30698L15.0845 9.24596L15.0845 9.24574L14.868 9.30698ZM15.9768 10.342L15.9213 10.56L15.9216 10.5601L15.9768 10.342ZM22.5562 12.1015L22.4977 12.3187L22.4985 12.3189L22.5562 12.1015ZM23.1038 12.3839L23.1725 12.5982L23.546 12.4783L23.254 12.2164L23.1038 12.3839ZM22.5013 12.5759L22.4438 12.3583L22.4429 12.3586L22.5013 12.5759ZM15.7546 14.3763L15.8109 14.5941L15.811 14.5941L15.7546 14.3763ZM14.9367 15.1418L15.1526 15.2052L15.1527 15.2048L14.9367 15.1418ZM12.9276 21.7421L13.1427 21.808L13.1427 21.8079L12.9276 21.7421ZM12.7306 22.1992L12.5161 22.2673L12.6978 22.8389L12.9369 22.2889L12.7306 22.1992ZM12.3067 20.8731L12.0914 20.9383L12.0917 20.9394L12.3067 20.8731ZM10.6046 15.1935L10.3882 15.2551L10.3882 15.2551L10.6046 15.1935ZM9.71114 14.3634L9.65505 14.5813L9.65512 14.5813L9.71114 14.3634ZM3.29203 12.6535L3.35029 12.4361L3.3498 12.436L3.29203 12.6535ZM2.4421 12.4163L2.21734 12.4267L2.22482 12.5886L2.38081 12.6328L2.4421 12.4163ZM2.43294 12.2697L2.36751 12.0544L2.20011 12.1053L2.20818 12.28L2.43294 12.2697ZM3.09272 12.0691L3.03404 11.8519L3.03373 11.852L3.09272 12.0691ZM9.72489 10.2902L9.78129 10.508L9.78147 10.508L9.72489 10.2902ZM10.6046 9.44283L10.3885 9.38007L10.3884 9.38038L10.6046 9.44283ZM12.5175 3.09484L12.3025 3.02835L12.3022 3.02954L12.5175 3.09484ZM12.6779 2.58596L12.658 2.36185L12.5075 2.3752L12.4629 2.51947L12.6779 2.58596ZM12.7993 2.57518L12.7874 2.35036L12.7794 2.35106L12.7993 2.57518ZM19.278 6.95667L19.4717 7.07113L19.4721 7.07043L19.278 6.95667ZM17.8095 9.4342L18.0018 9.55097L18.0026 9.54967L17.8095 9.4342ZM17.5438 9.76842L17.4348 9.57158L17.4347 9.57161L17.5438 9.76842ZM15.7614 9.04392L15.5485 9.11667L15.5486 9.11691L15.7614 9.04392ZM16.538 7.20464L16.6406 7.40491L16.6413 7.40453L16.538 7.20464ZM19.4704 5.66724L19.5749 5.86649L19.5751 5.8664L19.4704 5.66724ZM20.0042 5.39987L20.163 5.24049L20.0489 5.12673L19.9044 5.1982L20.0042 5.39987ZM20.1233 5.51415L20.1114 5.73883L20.6987 5.76988L20.2821 5.35477L20.1233 5.51415ZM15.6308 16.9681L15.7357 16.7691L15.7356 16.769L15.6308 16.9681ZM15.4453 16.787L15.2294 16.7231L15.2278 16.7292L15.4453 16.787ZM15.9745 15.297L16.1333 15.4564L16.1339 15.4559L15.9745 15.297ZM17.4659 14.8593L17.5163 15.0786L17.5192 15.0779L17.4659 14.8593ZM17.7064 15.0534L17.5099 15.163L17.5124 15.1674L17.7064 15.0534ZM20.0912 19.1416L20.2901 19.036L20.2858 19.0286L20.0912 19.1416ZM20.0385 19.2732L19.8301 19.1884L19.8136 19.229L19.8135 19.2728L20.0385 19.2732ZM7.41566 6.39389L7.3114 6.59328L7.31145 6.59331L7.41566 6.39389ZM9.66533 7.5518L9.56952 7.75538L9.66533 7.5518ZM9.99522 8.31942L9.77108 8.2997L9.77106 8.29994L9.99522 8.31942ZM8.24726 9.77489L8.21489 9.55223L8.2136 9.55242L8.24726 9.77489ZM7.83489 9.61748L8.02779 9.50165L8.02756 9.50127L7.83489 9.61748ZM5.45923 5.58961L5.65352 5.47614L5.65299 5.47525L5.45923 5.58961ZM5.45693 5.36105H5.68193V5.14764L5.46882 5.13637L5.45693 5.36105ZM7.83031 15.0275L8.02377 15.1425L8.02586 15.1388L7.83031 15.0275ZM7.97922 14.8744L8.0721 15.0794L8.0745 15.0782L7.97922 14.8744ZM9.75009 15.6269L9.96694 15.5669L9.96692 15.5668L9.75009 15.6269ZM8.95515 17.4619L9.06164 17.6601L9.06185 17.66L8.95515 17.4619ZM5.48443 19.2667L5.34068 19.4398L5.45546 19.5351L5.58794 19.4665L5.48443 19.2667ZM5.36988 19.1697L5.35767 18.945L4.78468 18.9761L5.22613 19.3427L5.36988 19.1697ZM14.9024 17.6529C14.5913 18.6757 14.3019 19.6203 14.0158 20.5617L14.4464 20.6926C14.733 19.7495 15.0209 18.8095 15.3329 17.7839L14.9024 17.6529ZM14.0158 20.5619C13.6956 21.6175 13.4001 22.6644 13.0554 23.7022L13.4824 23.844C13.8296 22.7989 14.1297 21.7369 14.4464 20.6924L14.0158 20.5619ZM13.0557 23.7013C13.0367 23.7577 12.9887 23.8226 12.9 23.9113C12.8272 23.984 12.6977 24.0982 12.6099 24.1979L12.9475 24.4954C13.0269 24.4054 13.1058 24.3417 13.2181 24.2295C13.3144 24.1333 13.4278 24.0063 13.4822 23.8449L13.0557 23.7013ZM12.9441 24.1941C12.8494 24.0915 12.7075 23.9732 12.6288 23.8983C12.5319 23.806 12.4819 23.7395 12.4637 23.6828L12.0352 23.8203C12.0904 23.9922 12.2144 24.1251 12.3186 24.2242C12.4409 24.3407 12.5269 24.4056 12.6133 24.4992L12.9441 24.1941ZM12.4637 23.6828C11.8986 21.9212 11.3749 20.1499 10.8359 18.3774L10.4054 18.5083C10.9431 20.2764 11.4687 22.0543 12.0352 23.8203L12.4637 23.6828ZM10.836 18.3778C10.7689 18.1557 10.6871 17.928 10.5985 17.6571L10.1708 17.7969C10.2655 18.0866 10.3395 18.2902 10.4052 18.5079L10.836 18.3778ZM10.2866 17.5245C10.0595 17.6345 9.86487 17.7219 9.68627 17.8136L9.8918 18.2139C10.066 18.1245 10.2379 18.0481 10.4827 17.9295L10.2866 17.5245ZM9.68503 17.8143C7.93779 18.725 6.19897 19.6445 4.44324 20.5365L4.64707 20.9377C6.40558 20.0443 8.14895 19.1224 9.89304 18.2133L9.68503 17.8143ZM4.44283 20.5367C4.38024 20.5687 4.29165 20.5843 4.16257 20.5903C4.05532 20.5952 3.87854 20.5926 3.74406 20.6059L3.78843 21.0537C3.91512 21.0412 4.02012 21.0473 4.18319 21.0398C4.32444 21.0333 4.49472 21.0155 4.64748 20.9375L4.44283 20.5367ZM3.99094 20.8417C3.995 20.7645 3.99234 20.6871 3.98898 20.6171C3.98545 20.5436 3.9814 20.4816 3.98033 20.4188C3.97815 20.2901 3.99139 20.2151 4.01853 20.168L3.62851 19.9435C3.53653 20.1033 3.528 20.285 3.5304 20.4264C3.53162 20.4986 3.53645 20.575 3.5395 20.6387C3.54273 20.7061 3.54437 20.7647 3.54156 20.818L3.99094 20.8417ZM4.01899 20.1672C4.94353 18.5453 5.90385 16.9442 6.85361 15.329L6.46571 15.1009C5.5186 16.7115 4.55456 18.3189 3.62805 19.9443L4.01899 20.1672ZM6.85319 15.3297C6.96414 15.1426 7.0696 14.9406 7.20623 14.6979L6.81411 14.4771C6.66667 14.739 6.5751 14.9164 6.46613 15.1002L6.85319 15.3297ZM7.08173 14.3742C6.86252 14.3006 6.66049 14.2238 6.46217 14.1699L6.34399 14.6041C6.52596 14.6536 6.69506 14.7191 6.9386 14.8008L7.08173 14.3742ZM6.46193 14.1698C4.54244 13.6496 2.62321 13.1437 0.71423 12.6029L0.591585 13.0359C2.50383 13.5775 4.42874 14.085 6.34422 14.6041L6.46193 14.1698ZM0.713349 12.6027C0.640464 12.5823 0.563229 12.5311 0.463405 12.4438C0.379117 12.3701 0.251077 12.2428 0.136471 12.1553L-0.136471 12.5131C-0.0334414 12.5917 0.0412644 12.6725 0.167166 12.7826C0.277533 12.8791 0.417934 12.9874 0.592466 13.0361L0.713349 12.6027ZM0.140341 12.5101C0.250267 12.4224 0.377169 12.2911 0.457868 12.2179C0.555245 12.1295 0.630139 12.0789 0.700128 12.0592L0.578197 11.626C0.403058 11.6753 0.263753 11.7864 0.155521 11.8846C0.0306118 11.9979 -0.0395033 12.0779 -0.140341 12.1584L0.140341 12.5101ZM0.70035 12.0591C2.59083 11.5249 4.49384 11.0276 6.39511 10.516L6.27818 10.0815C4.38113 10.5919 2.47207 11.0908 0.577975 11.6261L0.70035 12.0591ZM6.39602 10.5158C6.59588 10.4611 6.79595 10.3991 7.0624 10.3205L6.93502 9.88887C6.66082 9.9698 6.47144 10.0286 6.27726 10.0817L6.39602 10.5158ZM7.20041 10.005C7.10099 9.80387 7.01681 9.6068 6.91488 9.43547L6.52815 9.66556C6.61865 9.81767 6.68109 9.96991 6.79702 10.2044L7.20041 10.005ZM6.91545 9.43644C6.43656 8.62231 5.95654 7.80873 5.47661 6.99531C4.99665 6.18185 4.51678 5.36853 4.03807 4.5547L3.6502 4.78285C4.12909 5.59699 4.60911 6.41056 5.08904 7.22398C5.569 8.03745 6.04887 8.85076 6.52758 9.66459L6.91545 9.43644ZM4.03806 4.55467C3.94542 4.39723 3.8784 4.29238 3.85588 4.18492L3.41545 4.27719C3.45708 4.47592 3.57791 4.66001 3.65022 4.78288L4.03806 4.55467ZM3.85552 4.18322C3.83156 4.07309 3.86579 4.01336 3.90032 3.98407C3.93854 3.95167 4.01968 3.92115 4.14908 3.95799L4.27229 3.52519C4.03056 3.45637 3.78525 3.49162 3.60926 3.64088C3.4296 3.79325 3.36188 4.03109 3.41581 4.2789L3.85552 4.18322ZM4.14954 3.95812C4.28053 3.99511 4.39685 4.06699 4.56486 4.15458L4.77287 3.75554C4.64306 3.68787 4.46156 3.57863 4.27182 3.52506L4.14954 3.95812ZM4.56458 4.15443C5.42814 4.60611 6.29171 5.05887 7.1554 5.51169C8.01906 5.96449 8.88282 6.41736 9.74661 6.86915L9.95517 6.4704C9.09161 6.01872 8.22804 5.56596 7.36435 5.11314C6.5007 4.66034 5.63693 4.20748 4.77314 3.75568L4.56458 4.15443ZM9.74561 6.86862C9.89779 6.94919 10.0632 7.02165 10.2812 7.12526L10.4744 6.71884C10.2388 6.60684 10.0972 6.5456 9.95617 6.47092L9.74561 6.86862ZM10.5919 6.99131C10.7759 6.42242 10.9612 5.87925 11.1248 5.33513L10.6938 5.20561C10.532 5.74392 10.3508 6.27456 10.1637 6.85279L10.5919 6.99131ZM11.1246 5.33577C11.5544 3.9208 11.958 2.51049 12.413 1.11157L11.9851 0.972373C11.5284 2.37657 11.1209 3.79957 10.694 5.20497L11.1246 5.33577ZM12.413 1.11163C12.4486 1.00217 12.5182 0.865369 12.6028 0.753357C12.6951 0.631195 12.7697 0.585264 12.8009 0.578856L12.7106 0.138025C12.5104 0.179055 12.3502 0.341201 12.2438 0.482101C12.1296 0.633151 12.0365 0.814395 11.9851 0.972312L12.413 1.11163ZM12.8007 0.57891C12.8742 0.563921 12.9054 0.575867 12.9169 0.581759C12.9306 0.588769 12.9509 0.605253 12.9751 0.649941C13.0002 0.696164 13.0213 0.757603 13.0429 0.836396C13.0607 0.901127 13.0862 1.00914 13.1084 1.08296L13.5394 0.953548C13.5169 0.87858 13.5046 0.818409 13.4769 0.717378C13.4531 0.63041 13.4211 0.528514 13.3708 0.435658C13.3197 0.341269 13.2425 0.242933 13.122 0.181212C12.9993 0.118373 12.8595 0.10768 12.7108 0.137971L12.8007 0.57891ZM13.1087 1.08397C13.6493 2.85389 14.1805 4.62539 14.7168 6.39854L15.1475 6.26826C14.6116 4.49653 14.0799 2.72317 13.5391 0.952532L13.1087 1.08397ZM14.7164 6.39723C14.7686 6.57369 14.8375 6.75337 14.9187 6.98893L15.3441 6.84224C15.2558 6.58617 15.1965 6.43379 15.1479 6.26956L14.7164 6.39723ZM15.2272 7.11917C15.4462 7.0161 15.6565 6.92581 15.8517 6.82398L15.6436 6.425C15.4585 6.52155 15.2748 6.59944 15.0356 6.712L15.2272 7.11917ZM15.852 6.82387C17.5816 5.9192 19.299 5.00227 21.0363 4.11897L20.8323 3.71784C19.092 4.60266 17.3684 5.52285 15.6434 6.42512L15.852 6.82387ZM21.0362 4.11898C21.125 4.07387 21.2559 4.0337 21.3838 4.01767C21.5226 4.00029 21.604 4.01792 21.6289 4.03255L21.8571 3.64469C21.6987 3.55151 21.4903 3.55082 21.3278 3.57116C21.1545 3.59287 20.9727 3.6465 20.8323 3.71782L21.0362 4.11898ZM21.6278 4.03192C21.6868 4.06707 21.6973 4.092 21.6993 4.09718C21.7017 4.10363 21.706 4.12079 21.6949 4.1614C21.6833 4.20399 21.659 4.25608 21.6218 4.32124C21.5793 4.39546 21.548 4.44112 21.499 4.52394L21.8862 4.75324C21.915 4.70452 21.9742 4.61137 22.0124 4.54463C22.0557 4.46883 22.1022 4.37779 22.1289 4.28023C22.1562 4.18069 22.1665 4.06066 22.1202 3.938C22.0733 3.81407 21.9801 3.71798 21.8581 3.64532L21.6278 4.03192ZM21.4986 4.52451C21.0199 5.33831 20.5401 6.15106 20.0601 6.96399C19.5802 7.77687 19.1002 8.58993 18.6213 9.4041L19.0091 9.63225C19.4878 8.81845 19.9677 8.0057 20.4476 7.19277C20.9276 6.37989 21.4076 5.56683 21.8865 4.75267L21.4986 4.52451ZM18.6217 9.40336C18.5197 9.57528 18.4281 9.76295 18.3118 9.98186L18.7092 10.193C18.8358 9.95477 18.9137 9.79313 19.0087 9.63298L18.6217 9.40336ZM18.4437 10.3023C18.6853 10.3774 18.8924 10.4524 19.0919 10.5054L19.2075 10.0705C19.0175 10.02 18.8489 9.95702 18.5773 9.87257L18.4437 10.3023ZM19.091 10.5052C20.9925 11.019 22.8931 11.5162 24.7863 12.0484L24.908 11.6152C23.0121 11.0822 21.1051 10.5833 19.2084 10.0707L19.091 10.5052ZM24.786 12.0484C24.8869 12.0768 25.0138 12.1359 25.1177 12.208C25.1691 12.2437 25.2093 12.2788 25.2365 12.3097C25.2653 12.3424 25.2693 12.3588 25.2689 12.3571L25.7083 12.2596C25.6861 12.1598 25.6306 12.0764 25.5744 12.0125C25.5166 11.9469 25.4464 11.8884 25.3744 11.8384C25.2314 11.7391 25.0594 11.658 24.9083 11.6153L24.786 12.0484ZM25.2689 12.3571C25.2816 12.4139 25.271 12.4331 25.2689 12.437C25.2646 12.445 25.2509 12.4632 25.2064 12.4867C25.1613 12.5105 25.1009 12.5312 25.0237 12.552C24.9859 12.5622 24.9471 12.5717 24.9061 12.5817C24.866 12.5914 24.8231 12.6018 24.7818 12.6129L24.8987 13.0474C24.9336 13.0381 24.9708 13.029 25.0123 13.019C25.0528 13.0091 25.0969 12.9984 25.141 12.9865C25.2276 12.9631 25.3265 12.9321 25.4163 12.8847C25.5067 12.837 25.6034 12.7647 25.6649 12.6508C25.7286 12.5329 25.7392 12.399 25.7083 12.2596L25.2689 12.3571ZM24.7811 12.6131C23.8317 12.8718 22.8823 13.1289 21.9327 13.386C20.9832 13.6431 20.0334 13.9003 19.0836 14.1591L19.202 14.5933C20.1513 14.3346 21.1007 14.0775 22.0503 13.8204C22.9999 13.5632 23.9496 13.3061 24.8994 13.0473L24.7811 12.6131ZM19.0844 14.1589C18.8851 14.2125 18.682 14.2865 18.4392 14.3647L18.5772 14.793C18.843 14.7074 19.0156 14.6434 19.2012 14.5935L19.0844 14.1589ZM18.3112 14.6875C18.4317 14.9062 18.5258 15.0914 18.6263 15.2608L19.0133 15.0312C18.9168 14.8685 18.8367 14.7087 18.7053 14.4703L18.3112 14.6875ZM18.6258 15.2601C19.5848 16.8903 20.5543 18.5065 21.4904 20.1437L21.881 19.9203C20.9431 18.28 19.97 16.6576 19.0137 15.0319L18.6258 15.2601ZM21.4901 20.1433C21.5225 20.2002 21.5384 20.2827 21.5427 20.41C21.5449 20.4729 21.5442 20.5351 21.5445 20.6079C21.5448 20.6774 21.546 20.7538 21.5534 20.8299L22.0013 20.7866C21.996 20.7323 21.9947 20.6731 21.9945 20.606C21.9942 20.5421 21.9949 20.4666 21.9925 20.3947C21.9876 20.2525 21.9703 20.0773 21.8813 19.9208L21.4901 20.1433ZM21.7948 20.584C21.6514 20.5728 21.465 20.5806 21.3499 20.5782C21.2119 20.5754 21.1188 20.5606 21.0547 20.528L20.8505 20.929C21.0109 21.0106 21.1916 21.025 21.3406 21.0281C21.5123 21.0317 21.6261 21.0222 21.7599 21.0326L21.7948 20.584ZM21.0541 20.5277C19.2987 19.6402 17.5602 18.7187 15.8127 17.8078L15.6047 18.2068C17.3486 19.1158 19.0923 20.0401 20.8511 20.9293L21.0541 20.5277ZM15.8121 17.8074C15.6453 17.7212 15.4691 17.6404 15.2126 17.5176L15.0182 17.9235C15.284 18.0508 15.4468 18.1252 15.6054 18.2072L15.8121 17.8074ZM15.2697 17.8843L15.272 17.8821L14.9634 17.5546L14.9611 17.5568L15.2697 17.8843ZM12.7817 2.35094L12.6603 2.36172L12.7001 2.80996L12.8215 2.79918L12.7817 2.35094ZM12.4652 2.51935C12.4159 2.67879 12.3541 2.8616 12.304 3.03088L12.7355 3.15855C12.7863 2.98715 12.839 2.83358 12.8951 2.65233L12.4652 2.51935ZM12.3045 3.02942C11.6635 5.14311 11.0099 7.25644 10.3909 9.37973L10.8229 9.50568C11.441 7.38548 12.0932 5.27688 12.7351 3.16001L12.3045 3.02942ZM10.3909 9.37956C10.3289 9.59177 10.2509 9.7317 10.1479 9.83265C10.045 9.93349 9.89913 10.013 9.67061 10.0723L9.78376 10.5079C10.0615 10.4357 10.2868 10.3265 10.4628 10.1541C10.6387 9.98171 10.7474 9.76371 10.8228 9.50585L10.3909 9.37956ZM9.67084 10.0723C7.45165 10.6463 5.24331 11.2549 3.03627 11.8518L3.15375 12.2862C5.36358 11.6886 7.56753 11.0811 9.78352 10.5079L9.67084 10.0723ZM3.03602 11.8519C2.81003 11.9133 2.58064 11.9902 2.3698 12.0543L2.50066 12.4848C2.72968 12.4152 2.93556 12.3455 3.154 12.2861L3.03602 11.8519ZM2.21047 12.2799C2.21176 12.3079 2.21369 12.3349 2.21538 12.3588C2.21712 12.3834 2.21864 12.405 2.21964 12.4266L2.66916 12.4058C2.66786 12.3778 2.66594 12.3508 2.66425 12.327C2.6625 12.3023 2.66099 12.2808 2.65999 12.2592L2.21047 12.2799ZM2.38356 12.6328C2.667 12.7124 2.94994 12.7925 3.23501 12.8704L3.35363 12.4363C3.07056 12.359 2.78993 12.2795 2.50523 12.1995L2.38356 12.6328ZM3.23601 12.8707C5.37206 13.4439 7.51157 14.0288 9.65734 14.5812L9.76953 14.1454C7.62672 13.5937 5.49141 13.01 3.35264 12.436L3.23601 12.8707ZM9.65741 14.5812C9.88522 14.6397 10.0356 14.7139 10.1428 14.8114C10.248 14.9071 10.3298 15.0419 10.3905 15.255L10.8233 15.1318C10.7465 14.862 10.629 14.6453 10.4456 14.4785C10.2641 14.3135 10.0365 14.214 9.76946 14.1453L9.65741 14.5812ZM10.3904 15.2548C10.9295 17.1571 11.5194 19.0494 12.0938 20.9384L12.5243 20.8075C11.9487 18.9144 11.361 17.029 10.8234 15.1321L10.3904 15.2548ZM12.0937 20.9382C12.2159 21.3418 12.3501 21.7447 12.5187 22.2681L12.947 22.1301C12.7766 21.6011 12.645 21.2063 12.5244 20.8078L12.0937 20.9382ZM12.9395 22.2881C12.99 22.1708 13.0286 22.0878 13.0613 22.0154C13.0933 21.9446 13.1213 21.8805 13.1437 21.8118L12.716 21.672C12.7018 21.7155 12.6828 21.7603 12.6512 21.8301C12.6204 21.8984 12.5788 21.9879 12.5262 22.11L12.9395 22.2881ZM13.1449 21.808C13.8204 19.6099 14.506 17.4127 15.1549 15.2051L14.7231 15.0782C14.0753 17.2823 13.391 19.4752 12.7148 21.6758L13.1449 21.808ZM15.1549 15.2049C15.2112 15.0128 15.2845 14.8909 15.378 14.8043C15.4728 14.7164 15.6067 14.6477 15.8135 14.5939L15.7002 14.1584C15.4511 14.2232 15.2402 14.3185 15.0721 14.4742C14.9027 14.6312 14.795 14.8328 14.7231 15.0784L15.1549 15.2049ZM15.8133 14.594C18.0688 14.0093 20.3157 13.3965 22.5619 12.793L22.4452 12.3584C20.1967 12.9625 17.9534 13.5744 15.7004 14.1584L15.8133 14.594ZM22.5611 12.7933C22.772 12.7375 22.9868 12.6584 23.1748 12.5981L23.0373 12.1696C22.8222 12.2386 22.6429 12.3062 22.446 12.3582L22.5611 12.7933ZM23.2553 12.2154C23.0239 12.0104 22.8124 11.9383 22.6187 11.8846L22.4984 12.3182C22.6621 12.3636 22.7988 12.4122 22.9569 12.5522L23.2553 12.2154ZM22.6173 11.8842C20.4272 11.2918 18.2382 10.6806 16.0342 10.1237L15.9239 10.56C18.1231 11.1157 20.305 11.7249 22.4998 12.3186L22.6173 11.8842ZM16.0338 10.1236C15.7398 10.0499 15.5449 9.95486 15.4053 9.82628C15.2674 9.69923 15.1642 9.52147 15.0869 9.24604L14.6536 9.36769C14.7458 9.696 14.8831 9.95703 15.1004 10.1572C15.3159 10.3558 15.5906 10.4764 15.9243 10.5601L16.0338 10.1236ZM15.0868 9.24567C14.4949 7.15111 13.8336 5.07401 13.2 2.99883L12.7697 3.13023C13.4053 5.21229 14.0635 7.2795 14.6537 9.36805L15.0868 9.24567ZM13.2001 2.99917C13.1482 2.82792 13.0668 2.63975 13.0153 2.4982L12.5924 2.65192C12.6601 2.83812 12.7207 2.96908 12.7695 3.12988L13.2001 2.99917ZM12.8039 2.35006H12.8016V2.80006H12.8039V2.35006ZM20.2798 5.35465C20.2577 5.3326 20.2353 5.31154 20.2157 5.29304C20.1952 5.2738 20.1775 5.25713 20.1607 5.24037L19.8431 5.55911C19.8652 5.58117 19.8876 5.60223 19.9072 5.62073C19.9277 5.63996 19.9454 5.65664 19.9622 5.67339L20.2798 5.35465ZM19.9021 5.19808C19.726 5.28518 19.5431 5.37354 19.3634 5.46795L19.5728 5.86628C19.746 5.77526 19.9203 5.69112 20.1017 5.60141L19.9021 5.19808ZM19.3639 5.46769C18.3827 5.9803 17.413 6.49788 16.4325 7.00464L16.639 7.40441C17.6195 6.89773 18.5971 6.376 19.5723 5.86654L19.3639 5.46769ZM16.4325 7.00463C16.0041 7.22596 15.6936 7.51565 15.5375 7.88516C15.3809 8.25609 15.3947 8.6724 15.5462 9.11642L15.9721 8.97117C15.8456 8.60014 15.8498 8.30237 15.9521 8.06021C16.0549 7.81662 16.2717 7.5942 16.639 7.40442L16.4325 7.00463ZM15.5462 9.11638C15.5771 9.2073 15.6391 9.28284 15.6979 9.34091C15.7598 9.40194 15.8354 9.46013 15.9165 9.51409C16.0788 9.62219 16.2813 9.72535 16.4865 9.80979C16.6915 9.89419 16.9082 9.96357 17.1004 9.99989C17.1963 10.018 17.2918 10.029 17.38 10.0276C17.4643 10.0262 17.5631 10.0132 17.6499 9.96543L17.433 9.57116C17.4385 9.56813 17.4243 9.57678 17.3725 9.57764C17.3247 9.57844 17.2613 9.57234 17.184 9.55773C17.0297 9.52855 16.843 9.4699 16.6578 9.39366C16.4726 9.31747 16.2978 9.22738 16.1659 9.13952C16.0997 9.0955 16.0489 9.05505 16.0139 9.0205C15.9759 8.98298 15.9703 8.96601 15.9721 8.97122L15.5462 9.11638ZM17.6488 9.96603C17.7532 9.90935 17.8254 9.82307 17.8757 9.75148C17.9236 9.68319 17.9707 9.59835 17.9995 9.55085L17.6149 9.31731C17.5704 9.39055 17.5442 9.44048 17.5074 9.49294C17.4728 9.5421 17.4488 9.56256 17.4341 9.57057L17.6488 9.96603ZM18.0003 9.54955C18.4932 8.72523 18.9815 7.89889 19.4695 7.07079L19.0818 6.84232C18.5939 7.67021 18.1063 8.49555 17.6141 9.3186L18.0003 9.54955ZM19.4692 7.07138C19.7539 6.59157 20.0341 6.10738 20.3133 5.62709L19.9242 5.40096C19.6444 5.88235 19.3656 6.36416 19.0822 6.84173L19.4692 7.07138ZM20.1187 5.73902H20.121V5.28902H20.1187V5.73902ZM20.2476 19.3585C20.266 19.3122 20.2783 19.2858 20.2868 19.2671C20.2894 19.2615 20.2985 19.2421 20.3048 19.2225C20.3088 19.2101 20.3374 19.1274 20.2899 19.0381L19.8925 19.2492C19.8702 19.2072 19.8657 19.1662 19.8673 19.1359C19.8686 19.1095 19.8747 19.0902 19.8766 19.0841C19.879 19.0768 19.881 19.0724 19.8805 19.0735C19.8802 19.0741 19.8794 19.0759 19.8773 19.0806C19.8686 19.0996 19.8523 19.1347 19.8295 19.1919L20.2476 19.3585ZM20.2858 19.0307C19.4931 17.6657 18.7002 16.3025 17.9004 14.9414L17.5124 15.1694C18.3116 16.5295 19.104 17.8918 19.8967 19.2566L20.2858 19.0307ZM17.8994 14.9397C17.8597 14.8735 17.7981 14.8038 17.7371 14.7513C17.7061 14.7247 17.6677 14.696 17.625 14.6741C17.5907 14.6566 17.5128 14.6217 17.4198 14.6411L17.5119 15.0816C17.4777 15.0887 17.4514 15.0842 17.4394 15.0813C17.4268 15.0783 17.42 15.0747 17.4199 15.0747C17.4193 15.0743 17.4214 15.0754 17.4263 15.0788C17.4309 15.0821 17.4369 15.0867 17.4438 15.0926C17.4578 15.1047 17.4728 15.1197 17.4863 15.1352C17.5002 15.1512 17.5092 15.1641 17.5134 15.1711L17.8994 14.9397ZM17.4154 14.6421C17.295 14.6698 17.1642 14.6913 17.0242 14.7136C16.8868 14.7354 16.7399 14.758 16.5991 14.7871C16.3259 14.8434 16.0232 14.933 15.8157 15.1397L16.1333 15.4585C16.2397 15.3525 16.4249 15.2825 16.69 15.2278C16.8184 15.2013 16.9533 15.1805 17.0948 15.158C17.2338 15.1359 17.3789 15.1122 17.5163 15.0806L17.4154 14.6421ZM15.8156 15.1397C15.5974 15.3572 15.4907 15.6505 15.4184 15.9244C15.3819 16.0631 15.3518 16.2069 15.3229 16.3411C15.2933 16.4778 15.2646 16.606 15.2295 16.7254L15.6611 16.8526C15.7015 16.7155 15.7333 16.5725 15.7627 16.436C15.7927 16.297 15.8202 16.1655 15.8536 16.0392C15.9211 15.7831 16.0033 15.588 16.1333 15.4584L15.8156 15.1397ZM15.2278 16.7313C15.2112 16.7937 15.2228 16.8474 15.2336 16.8794C15.2446 16.9122 15.2603 16.9385 15.2726 16.9565C15.2972 16.9926 15.3275 17.0234 15.3529 17.0466C15.4042 17.0935 15.4691 17.1393 15.5261 17.1693L15.7356 16.771C15.7266 16.7663 15.713 16.7581 15.6974 16.747C15.6819 16.736 15.6675 16.7245 15.6563 16.7142C15.6435 16.7026 15.6413 16.6985 15.6444 16.703C15.6459 16.7053 15.6535 16.7165 15.66 16.7356C15.6661 16.7539 15.6765 16.7951 15.6627 16.8468L15.2278 16.7313ZM15.5262 17.1693C16.9834 17.9349 18.4432 18.6963 19.9342 19.4767L20.1429 19.078C18.6511 18.2972 17.1923 17.5363 15.7355 16.771L15.5262 17.1693ZM20.2635 19.2773V19.2752H19.8135V19.2773H20.2635ZM5.22964 5.36093C5.22964 5.41832 5.22591 5.45265 5.22341 5.49742C5.22178 5.52662 5.21449 5.61271 5.25823 5.69505L5.65564 5.48394C5.66861 5.50836 5.67134 5.52881 5.67195 5.5355C5.67236 5.53995 5.6718 5.53879 5.67271 5.52254C5.67421 5.49562 5.67964 5.43507 5.67964 5.36093H5.22964ZM5.26264 5.70296C6.04821 7.0481 6.83482 8.39718 7.63988 9.73347L8.02533 9.50125C7.22217 8.16811 6.43722 6.82188 5.65123 5.47602L5.26264 5.70296ZM7.64085 9.73507C7.67939 9.79786 7.73372 9.84261 7.77974 9.87303C7.82808 9.90497 7.88159 9.9305 7.93401 9.94991C8.03322 9.98666 8.16012 10.0129 8.27443 9.99783L8.2155 9.5517C8.21056 9.55236 8.19499 9.55299 8.16908 9.54887C8.14439 9.54496 8.11685 9.53776 8.0903 9.52793C8.06339 9.51796 8.04202 9.50696 8.02786 9.49761C8.01138 9.48672 8.01559 9.48538 8.02436 9.49965L7.64085 9.73507ZM8.27741 9.99742C8.73453 9.9308 9.19294 9.82459 9.5509 9.57746C9.92386 9.31997 10.166 8.92537 10.2171 8.33882L9.76877 8.29978C9.72822 8.76548 9.54769 9.03285 9.29523 9.20714C9.02777 9.3918 8.65802 9.4872 8.21252 9.55212L8.27741 9.99742ZM10.2171 8.33903C10.2314 8.17657 10.256 7.97815 10.2031 7.80328C10.1413 7.59872 9.99097 7.45733 9.75884 7.34809L9.56723 7.75526C9.72914 7.83146 9.75976 7.89168 9.77239 7.93347C9.794 8.00496 9.78657 8.09763 9.76879 8.29957L10.2171 8.33903ZM9.75908 7.34821C9.0015 6.99061 8.27299 6.58791 7.51733 6.19423L7.30941 6.59332C8.052 6.98019 8.79883 7.39256 9.56699 7.75515L9.75908 7.34821ZM7.51763 6.19439C6.87897 5.86043 6.24251 5.52427 5.55754 5.16203L5.34717 5.55983C6.03216 5.92209 6.66944 6.25868 7.30911 6.59316L7.51763 6.19439ZM5.45235 5.58593H5.45464V5.13593H5.45235V5.58593ZM5.22842 19.3426C5.24641 19.3576 5.26407 19.3727 5.28316 19.389C5.30187 19.405 5.32201 19.4223 5.34297 19.4397L5.63047 19.0935C5.61248 19.0785 5.59482 19.0634 5.57573 19.0471C5.55702 19.0311 5.53688 19.0138 5.51592 18.9964L5.22842 19.3426ZM5.59052 19.4662C6.74361 18.8666 7.91462 18.2775 9.06393 17.66L8.85094 17.2636C7.70476 17.8794 6.54364 18.4634 5.38291 19.0669L5.59052 19.4662ZM9.06391 17.66C9.43136 17.4626 9.65654 17.361 9.85198 17.259C9.94114 17.2125 10.0231 17.1659 10.0894 17.1145C10.158 17.0613 10.2219 16.9938 10.2594 16.9011C10.2968 16.8085 10.2976 16.7161 10.2859 16.6319C10.2746 16.5506 10.2494 16.4621 10.2203 16.37C10.1596 16.178 10.0716 15.9373 9.96926 15.5669L9.53551 15.6867C9.6405 16.0667 9.7369 16.3338 9.7912 16.5056C9.81959 16.5954 9.83449 16.6529 9.84015 16.6937C9.84543 16.7318 9.83998 16.7379 9.84215 16.7325C9.84438 16.727 9.84413 16.7353 9.81364 16.7589C9.78093 16.7843 9.72907 16.8156 9.64375 16.8601C9.49026 16.9402 9.204 17.0739 8.85096 17.2636L9.06391 17.66ZM9.96921 15.5667C9.94272 15.4712 9.88212 15.3922 9.82466 15.3324C9.76424 15.2696 9.6897 15.2101 9.60989 15.1552C9.44995 15.0453 9.24893 14.9405 9.04482 14.8541C8.84059 14.7677 8.62445 14.6961 8.43233 14.6563C8.33639 14.6365 8.24125 14.6235 8.15361 14.6222C8.06986 14.621 7.97283 14.63 7.88624 14.6705L8.07679 15.0781C8.07438 15.0792 8.09283 15.0714 8.14708 15.0722C8.19744 15.0729 8.26282 15.0808 8.34118 15.097C8.49763 15.1293 8.68512 15.1906 8.86948 15.2686C9.05397 15.3466 9.22651 15.4378 9.35501 15.5261C9.41941 15.5703 9.46781 15.6105 9.50029 15.6443C9.53573 15.6812 9.53799 15.6957 9.53555 15.6869L9.96921 15.5667ZM7.88864 14.6694C7.76109 14.7272 7.67878 14.8453 7.63884 14.913L8.02637 15.1418C8.03767 15.1226 8.05045 15.1048 8.06261 15.0916C8.07588 15.0771 8.0807 15.0764 8.07439 15.0792L7.88864 14.6694ZM7.63918 14.9124C6.81906 16.2924 5.9988 17.6726 5.18082 19.0549L5.5681 19.2841C6.38583 17.9022 7.20586 16.5224 8.02602 15.1423L7.63918 14.9124ZM5.37446 18.9445H5.37217V19.3945H5.37446V18.9445ZM12.5911 2.65452C12.6578 2.83135 12.7197 2.97331 12.7673 3.13001L13.1979 2.9993C13.1446 2.82393 13.069 2.64652 13.0121 2.49561L12.5911 2.65452ZM12.7674 3.13035C13.403 5.21233 14.0613 7.2818 14.6515 9.36823L15.0845 9.24574C14.4926 7.15337 13.8313 5.07422 13.1978 2.99895L12.7674 3.13035ZM14.6514 9.36801C14.7437 9.69536 14.881 9.95569 15.0981 10.1557C15.3134 10.3541 15.5878 10.4753 15.9213 10.56L16.0322 10.1239C15.738 10.0491 15.5428 9.95358 15.403 9.82478C15.265 9.69759 15.1618 9.5202 15.0845 9.24596L14.6514 9.36801ZM15.9216 10.5601C18.1209 11.1159 20.3024 11.7271 22.4977 12.3187L22.6148 11.8842C20.4253 11.2942 18.2357 10.6807 16.0319 10.1238L15.9216 10.5601ZM22.4985 12.3189C22.66 12.3618 22.7959 12.41 22.9535 12.5514L23.254 12.2164C23.0222 12.0085 22.8099 11.936 22.614 11.884L22.4985 12.3189ZM23.035 12.1697C22.8199 12.2387 22.6406 12.3063 22.4438 12.3583L22.5588 12.7934C22.7697 12.7376 22.9845 12.6585 23.1725 12.5982L23.035 12.1697ZM22.4429 12.3586C20.1944 12.9626 17.9511 13.5745 15.6981 14.1585L15.811 14.5941C18.0665 14.0094 20.3134 13.3966 22.5596 12.7931L22.4429 12.3586ZM15.6982 14.1585C15.4483 14.2232 15.2371 14.3177 15.069 14.4735C14.8995 14.6306 14.7925 14.8325 14.7207 15.0788L15.1527 15.2048C15.2092 15.0111 15.282 14.8896 15.3749 14.8036C15.4691 14.7163 15.6026 14.6481 15.8109 14.5941L15.6982 14.1585ZM14.7208 15.0783C14.073 17.2826 13.3865 19.475 12.7124 21.6762L13.1427 21.8079C13.8157 19.6104 14.5038 17.4127 15.1526 15.2052L14.7208 15.0783ZM12.7125 21.6761C12.6998 21.7173 12.6816 21.761 12.65 21.8307C12.6193 21.8982 12.5767 21.9887 12.5242 22.1095L12.9369 22.2889C12.9875 22.1725 13.0262 22.0905 13.0597 22.0168C13.0922 21.9452 13.1209 21.879 13.1427 21.808L12.7125 21.6761ZM12.945 22.131C12.7764 21.6005 12.6453 21.2072 12.5217 20.8068L12.0917 20.9394C12.2156 21.341 12.3503 21.7456 12.5161 22.2673L12.945 22.131ZM12.5221 20.8079C11.9487 18.9145 11.361 17.0292 10.821 15.1319L10.3882 15.2551C10.9295 17.1572 11.5194 19.0496 12.0914 20.9383L12.5221 20.8079ZM10.821 15.1319C10.7442 14.8621 10.6267 14.6454 10.4433 14.4786C10.2618 14.3136 10.0342 14.2141 9.76717 14.1455L9.65512 14.5813C9.88293 14.6399 10.0333 14.714 10.1405 14.8115C10.2457 14.9072 10.3275 15.042 10.3882 15.2551L10.821 15.1319ZM9.76724 14.1455C7.62439 13.5939 5.49151 13.0101 3.35029 12.4361L3.23377 12.8708C5.37196 13.444 7.50932 14.0289 9.65505 14.5813L9.76724 14.1455ZM3.3498 12.436C3.06804 12.3612 2.78665 12.28 2.5034 12.1998L2.38081 12.6328C2.66112 12.7121 2.94788 12.7949 3.23426 12.8709L3.3498 12.436ZM2.66686 12.4059C2.66557 12.3779 2.66365 12.3509 2.66196 12.3271C2.66021 12.3024 2.6587 12.2809 2.6577 12.2593L2.20818 12.28C2.20947 12.308 2.2114 12.335 2.21308 12.3589C2.21483 12.3835 2.21635 12.4051 2.21734 12.4267L2.66686 12.4059ZM2.49837 12.4849C2.72739 12.4153 2.93327 12.3456 3.15171 12.2863L3.03373 11.852C2.80774 11.9134 2.57835 11.9903 2.36751 12.0544L2.49837 12.4849ZM3.15141 12.2863C5.3636 11.6887 7.56751 11.0812 9.78129 10.508L9.6685 10.0724C7.45166 10.6464 5.24329 11.255 3.03404 11.8519L3.15141 12.2863ZM9.78147 10.508C10.0595 10.4358 10.2852 10.326 10.4614 10.1534C10.6375 9.98079 10.7464 9.76271 10.8208 9.50527L10.3884 9.38038C10.3276 9.59085 10.2498 9.73071 10.1465 9.83195C10.0431 9.93319 9.89661 10.0132 9.66831 10.0725L9.78147 10.508ZM10.8207 9.50558C11.4364 7.38553 12.0908 5.27728 12.7328 3.16013L12.3022 3.02954C11.6613 5.14295 11.0053 7.25663 10.3885 9.38007L10.8207 9.50558ZM12.7325 3.16133C12.7585 3.07715 12.7851 2.99337 12.8121 2.9086C12.839 2.8241 12.8662 2.73862 12.8928 2.65245L12.4629 2.51947C12.4369 2.60365 12.4102 2.68743 12.3833 2.7722C12.3564 2.8567 12.3292 2.94218 12.3026 3.02835L12.7325 3.16133ZM12.6978 2.81008L12.8192 2.7993L12.7794 2.35106L12.658 2.36185L12.6978 2.81008ZM12.8112 2.79987L12.8135 2.79975L12.7897 2.35038L12.7874 2.3505L12.8112 2.79987ZM19.9269 5.40026C19.7859 5.64089 19.6455 5.88152 19.5052 6.12195C19.3648 6.36243 19.2246 6.6027 19.0838 6.84292L19.4721 7.07043C19.6131 6.8298 19.7535 6.58917 19.8938 6.34875C20.0342 6.10827 20.1744 5.868 20.3151 5.62778L19.9269 5.40026ZM19.0843 6.84222C18.5961 7.66838 18.1085 8.49569 17.6164 9.31873L18.0026 9.54967C18.4955 8.72534 18.9839 7.89665 19.4717 7.07113L19.0843 6.84222ZM17.6172 9.31744C17.5739 9.38878 17.5459 9.44058 17.5092 9.49248C17.474 9.54229 17.4495 9.56344 17.4348 9.57158L17.6527 9.96526C17.7549 9.90872 17.8266 9.82313 17.8767 9.75219C17.9253 9.68334 17.9718 9.60038 18.0018 9.55097L17.6172 9.31744ZM17.4347 9.57161C17.4409 9.56818 17.4273 9.57686 17.3757 9.57767C17.328 9.57843 17.2647 9.57228 17.1874 9.55759C17.0332 9.52826 16.8464 9.46941 16.661 9.393C16.4756 9.31665 16.3005 9.22645 16.1683 9.1386C16.102 9.09459 16.0511 9.05416 16.0159 9.01966C15.9777 8.98213 15.9723 8.96535 15.9743 8.97093L15.5486 9.11691C15.5797 9.20767 15.6418 9.28299 15.7007 9.34075C15.7626 9.40154 15.8382 9.45958 15.9193 9.51344C16.0817 9.62134 16.2843 9.72452 16.4896 9.80908C16.6947 9.89359 16.9114 9.96316 17.1034 9.99967C17.1992 10.0179 17.2947 10.029 17.3828 10.0276C17.4669 10.0263 17.5659 10.0134 17.6528 9.96523L17.4347 9.57161ZM15.9743 8.97117C15.847 8.59848 15.8511 8.3001 15.9532 8.05817C16.0559 7.81494 16.2727 7.5933 16.6406 7.40491L16.4355 7.00437C16.0061 7.22424 15.6949 7.51326 15.5387 7.88313C15.382 8.25429 15.3964 8.67143 15.5485 9.11667L15.9743 8.97117ZM16.6413 7.40453C17.6226 6.89742 18.5982 6.37889 19.5749 5.86649L19.3659 5.46799C18.3862 5.98196 17.4145 6.49843 16.4347 7.00476L16.6413 7.40453ZM19.5751 5.8664C19.7482 5.77539 19.9226 5.69124 20.104 5.60153L19.9044 5.1982C19.7283 5.2853 19.5453 5.37366 19.3657 5.46808L19.5751 5.8664ZM19.8454 5.55924C19.8675 5.58129 19.8899 5.60235 19.9095 5.62085C19.93 5.64008 19.9477 5.65676 19.9645 5.67352L20.2821 5.35477C20.26 5.33272 20.2376 5.31166 20.218 5.29317C20.1975 5.27393 20.1798 5.25725 20.163 5.24049L19.8454 5.55924ZM20.1352 5.28946L20.1329 5.28934L20.1091 5.73871L20.1114 5.73883L20.1352 5.28946ZM20.1426 19.0757C18.6511 18.2972 17.1923 17.5364 15.7357 16.7691L15.526 17.1672C16.9835 17.9351 18.4432 18.6963 19.9344 19.4747L20.1426 19.0757ZM15.7356 16.769C15.7266 16.7643 15.7131 16.7561 15.6974 16.745C15.6819 16.734 15.6675 16.7225 15.6563 16.7122C15.6435 16.7006 15.6413 16.6965 15.6444 16.701C15.6459 16.7032 15.6535 16.7145 15.66 16.7336C15.6661 16.7519 15.6765 16.7931 15.6627 16.8448L15.2278 16.7292C15.2112 16.7917 15.2228 16.8454 15.2336 16.8774C15.2446 16.9102 15.2603 16.9364 15.2726 16.9545C15.2972 16.9906 15.3275 17.0214 15.3529 17.0445C15.4042 17.0914 15.4691 17.1373 15.5261 17.1673L15.7356 16.769ZM15.661 16.8508C15.7015 16.7141 15.7332 16.5713 15.7627 16.4349C15.7927 16.2959 15.8203 16.1644 15.8536 16.0379C15.9211 15.7814 16.0034 15.5859 16.1333 15.4564L15.8156 15.1377C15.5974 15.3553 15.4906 15.6493 15.4184 15.9232C15.3819 16.062 15.3518 16.2059 15.3229 16.3399C15.2933 16.4766 15.2647 16.6044 15.2295 16.7232L15.661 16.8508ZM16.1339 15.4559C16.2388 15.3505 16.4235 15.2805 16.6891 15.2258C16.8176 15.1993 16.9527 15.1785 17.0945 15.156C17.2336 15.1339 17.3789 15.1102 17.5163 15.0786L17.4154 14.64C17.2951 14.6677 17.1641 14.6893 17.0239 14.7116C16.8864 14.7334 16.7393 14.756 16.5983 14.785C16.325 14.8413 16.0217 14.9309 15.8151 15.1382L16.1339 15.4559ZM17.5192 15.0779C17.4844 15.0864 17.4571 15.0825 17.4442 15.0796C17.4308 15.0767 17.4234 15.073 17.4229 15.0728C17.4224 15.0725 17.4304 15.0768 17.4452 15.0894C17.4588 15.1011 17.4733 15.1156 17.486 15.1306C17.4993 15.1461 17.507 15.1578 17.5099 15.163L17.9029 14.9438C17.8631 14.8723 17.7992 14.8001 17.7374 14.7473C17.7058 14.7202 17.6665 14.6913 17.6227 14.6695C17.5874 14.652 17.507 14.6177 17.4125 14.6407L17.5192 15.0779ZM17.5124 15.1674C18.3116 16.5274 19.104 17.8898 19.8967 19.2546L20.2858 19.0286C19.4931 17.6637 18.7002 16.3005 17.9004 14.9394L17.5124 15.1674ZM19.8925 19.2472C19.8696 19.204 19.8658 19.1627 19.8673 19.1344C19.8685 19.109 19.8741 19.0905 19.8759 19.0845C19.8772 19.0806 19.8782 19.0777 19.8788 19.0762C19.8791 19.0754 19.8793 19.0748 19.8795 19.0745C19.8795 19.0743 19.8796 19.0742 19.8796 19.0741C19.8797 19.074 19.8797 19.0739 19.8797 19.0739C19.8797 19.0739 19.8797 19.074 19.8796 19.0741C19.8796 19.0741 19.8796 19.0743 19.8795 19.0744C19.8794 19.0747 19.8792 19.0751 19.8789 19.0757C19.8784 19.0769 19.8777 19.0784 19.8768 19.0805C19.8689 19.0981 19.8526 19.1331 19.8301 19.1884L20.247 19.358C20.2657 19.3118 20.2781 19.2854 20.2873 19.2648C20.2904 19.258 20.2993 19.2386 20.3055 19.2186C20.3088 19.2081 20.3373 19.1252 20.2899 19.0361L19.8925 19.2472ZM19.8135 19.2728L19.8135 19.2749L20.2635 19.2755L20.2635 19.2735L19.8135 19.2728ZM5.34995 5.56009C6.03331 5.91933 6.67233 6.25911 7.3114 6.59328L7.51992 6.19451C6.88066 5.86024 6.24594 5.52272 5.55934 5.16177L5.34995 5.56009ZM7.31145 6.59331C8.05213 6.98037 8.79871 7.39263 9.56952 7.75538L9.76113 7.34822C9.00162 6.99078 8.27285 6.58798 7.51987 6.19448L7.31145 6.59331ZM9.56952 7.75538C9.73143 7.83158 9.76205 7.8918 9.77468 7.93359C9.79629 8.00508 9.78886 8.09775 9.77108 8.2997L10.2194 8.33915C10.2336 8.17669 10.2583 7.97827 10.2054 7.8034C10.1436 7.59884 9.99326 7.45746 9.76113 7.34822L9.56952 7.75538ZM9.77106 8.29994C9.73047 8.76704 9.55029 9.03422 9.29841 9.20805C9.03137 9.39236 8.66179 9.48727 8.21489 9.55223L8.27962 9.99755C8.73763 9.93098 9.19622 9.82536 9.55402 9.57841C9.92698 9.321 10.1683 8.92621 10.2194 8.3389L9.77106 8.29994ZM8.2136 9.55242C8.21061 9.55287 8.19645 9.55388 8.17097 9.55C8.14686 9.54632 8.11963 9.53933 8.0932 9.52957C8.06643 9.51969 8.04515 9.50871 8.0311 9.49936C8.01477 9.48849 8.01911 9.48721 8.02779 9.50165L7.642 9.73332C7.68046 9.79735 7.7352 9.84297 7.78173 9.87394C7.83053 9.90643 7.88456 9.93224 7.9374 9.95174C8.03687 9.98845 8.16551 10.0148 8.28091 9.99736L8.2136 9.55242ZM8.02756 9.50127C7.22217 8.16606 6.43958 6.82212 5.65352 5.47615L5.26493 5.70308C6.05043 7.0481 6.83483 8.39515 7.64223 9.7337L8.02756 9.50127ZM5.65299 5.47525C5.66842 5.50139 5.67218 5.52447 5.6731 5.53378C5.67374 5.54018 5.673 5.54058 5.67403 5.52445C5.6757 5.49829 5.68193 5.43639 5.68193 5.36105H5.23193C5.23193 5.41724 5.22786 5.45022 5.22495 5.49575C5.22308 5.5249 5.21426 5.61724 5.26546 5.70398L5.65299 5.47525ZM5.46882 5.13637L5.46653 5.13625L5.44275 5.58562L5.44504 5.58574L5.46882 5.13637ZM5.56573 19.2842C6.38354 17.9043 7.20364 16.5224 8.02373 15.1425L7.63689 14.9126C6.8167 16.2926 5.99651 17.6747 5.17861 19.0548L5.56573 19.2842ZM8.02586 15.1388C8.03617 15.1207 8.04814 15.104 8.05957 15.0917C8.07182 15.0784 8.07692 15.0772 8.0721 15.0793L7.88635 14.6695C7.76015 14.7267 7.67773 14.8407 7.63477 14.9162L8.02586 15.1388ZM8.0745 15.0782C8.07209 15.0794 8.09054 15.0715 8.14479 15.0723C8.19515 15.073 8.26054 15.0809 8.33889 15.0971C8.49534 15.1295 8.68283 15.1907 8.86719 15.2687C9.05168 15.3467 9.22422 15.4379 9.35272 15.5262C9.41712 15.5705 9.46552 15.6107 9.498 15.6444C9.53344 15.6813 9.5357 15.6958 9.53327 15.687L9.96692 15.5668C9.94043 15.4713 9.87984 15.3923 9.82237 15.3325C9.76195 15.2697 9.68742 15.2102 9.6076 15.1553C9.44766 15.0454 9.24664 14.9406 9.04253 14.8542C8.8383 14.7678 8.62216 14.6962 8.43004 14.6564C8.3341 14.6366 8.23897 14.6236 8.15132 14.6223C8.06757 14.6211 7.97054 14.6301 7.88395 14.6706L8.0745 15.0782ZM9.53324 15.6869C9.63824 16.0664 9.73465 16.3331 9.78894 16.5046C9.81733 16.5943 9.83221 16.6516 9.83787 16.6924C9.84314 16.7303 9.8377 16.7364 9.83986 16.731C9.84206 16.7256 9.84175 16.7339 9.8112 16.7577C9.77844 16.7831 9.72654 16.8145 9.64122 16.8591C9.48772 16.9395 9.20146 17.0736 8.84844 17.2638L9.06185 17.66C9.42932 17.462 9.65451 17.3601 9.84994 17.2578C9.93909 17.2111 10.021 17.1645 10.0873 17.113C10.1558 17.0598 10.2197 16.9922 10.2571 16.8996C10.2945 16.807 10.2953 16.7146 10.2836 16.6305C10.2723 16.5492 10.2471 16.4607 10.218 16.3688C10.1573 16.1771 10.0693 15.9368 9.96694 15.5669L9.53324 15.6869ZM8.84865 17.2637C7.70285 17.8794 6.54068 18.466 5.38091 19.0669L5.58794 19.4665C6.74198 18.8685 7.91196 18.2778 9.06164 17.6601L8.84865 17.2637ZM5.62818 19.0936C5.61018 19.0786 5.59253 19.0635 5.57343 19.0472C5.55473 19.0312 5.53458 19.014 5.51363 18.9966L5.22613 19.3427C5.24412 19.3577 5.26178 19.3728 5.28087 19.3891C5.29958 19.4051 5.31972 19.4224 5.34068 19.4398L5.62818 19.0936ZM5.38209 19.3943L5.38438 19.3942L5.35996 18.9449L5.35767 18.945L5.38209 19.3943Z" fill="white" mask="url(#path-1-inside-1_941_2228)"/>
</svg>
